
        <svg xmlns="http://www.w3.org/2000/svg" xmlns:xlink="http://www.w3.org/1999/xlink" version="1.1" width="3160.2044477819923" 
        height="722.3111321503384" viewBox="0 0 3160.2044477819923 722.3111321503384">
			
			<g transform="scale(8.010222389099631) translate(10, 10)">
				<defs id="SvgjsDefs1292"></defs><g id="SvgjsG1293" featureKey="nRdZyp-0" transform="matrix(0.764785629819191,0,0,0.764785629819191,-0.1927258678522614,-2.9826640292304862)" fill="#f12b6b"><path xmlns="http://www.w3.org/2000/svg" d="M100.252,47.517c0,1.995-1.596,3.591-3.591,3.591h-0.665L81.768,93.262c-0.532,1.462-1.861,2.394-3.324,2.394H22.725  c-1.463,0-2.792-0.932-3.325-2.394L4.64,51.108H3.842c-1.995,0-3.59-1.596-3.59-3.591s1.596-3.59,3.59-3.59h28.989l6.516-17.686  c-1.063-1.33-1.462-3.059-0.931-4.654l5.319-14.495C44.4,5.097,46.262,3.9,48.257,3.9h3.989c1.995,0,3.856,1.197,4.521,3.191  l5.319,14.495c0.532,1.596,0.133,3.324-0.931,4.654l6.516,17.686h28.989C98.656,43.927,100.252,45.522,100.252,47.517z   M12.353,51.108l3.192,9.175h13.563l-1.596-9.175H12.353z M20.464,74.378h11.037l-1.596-9.308H17.14L20.464,74.378z M25.385,88.474  h8.644l-1.596-9.308H22.06L25.385,88.474z M32.299,51.108l1.596,9.175h13.963v-9.175H32.299z M36.422,74.378h11.436v-9.308H34.826  L36.422,74.378z M37.22,79.166l1.729,9.308h8.91v-9.308H37.22z M37.885,43.927h24.734l-5.852-16.09  c-1.729-0.266-3.059-1.33-3.724-3.059l-2.792-7.713l-2.792,7.713c-0.665,1.729-1.995,2.792-3.723,3.059L37.885,43.927z   M66.608,60.282l1.596-9.175H52.646v9.175H66.608z M65.678,65.071H52.646v9.308h11.437L65.678,65.071z M52.646,88.474h8.909  l1.729-9.308H52.646V88.474z M78.976,79.166H68.071l-1.596,9.308h9.308L78.976,79.166z M83.63,65.071H70.598l-1.729,9.308h11.702  L83.63,65.071z M88.417,51.108H72.991l-1.596,9.175h13.963L88.417,51.108z"></path></g><g id="SvgjsG1294" featureKey="Q4qmbg-0" transform="matrix(3.8959134252070085,0,0,3.8959134252070085,98.8962055057183,-14.6483363235348)" fill="#f12b6b"><path d="M6.94 5.82 l0 2.34 c-0.42 -0.38 -1.08 -0.4 -1.26 -0.4 c-1.02 0 -1.08 1.08 -1.08 1.9 l0 0.46 l2.34 0 l0 2.44 l-2.34 0 l0 7.44 l-2.96 0 l0 -7.44 l-1.1 0 l0 -2.44 l1.1 0 l0 -0.46 c0 -3.12 1.16 -4.36 3.68 -4.36 c0.6 0 1.16 0.24 1.62 0.52 z M12.923895833333333 12.42 c-1.22 0 -2.24 1.08 -2.24 2.66 c0 1.56 1.02 2.64 2.24 2.64 c1.24 0 2.26 -1.08 2.26 -2.64 c0 -1.58 -1.02 -2.66 -2.26 -2.66 z M12.923895833333333 9.98 c2.9 0 5.22 2.18 5.22 5.1 s-2.32 5.08 -5.22 5.08 c-2.88 0 -5.2 -2.16 -5.2 -5.08 s2.32 -5.1 5.2 -5.1 z M24.067791666666665 12.42 c-1.22 0 -2.24 1.08 -2.24 2.66 c0 1.56 1.02 2.64 2.24 2.64 c1.24 0 2.26 -1.08 2.26 -2.64 c0 -1.58 -1.02 -2.66 -2.26 -2.66 z M24.067791666666665 9.98 c2.9 0 5.22 2.18 5.22 5.1 s-2.32 5.08 -5.22 5.08 c-2.88 0 -5.2 -2.16 -5.2 -5.08 s2.32 -5.1 5.2 -5.1 z M29.991687499999998 15.08 c0 -2.92 1.92 -5.1 4.82 -5.1 c0.64 0 1.9 0.34 2.24 0.82 l0 -5.32 l2.98 0 l0 14.52 l-2.98 0 l0 -0.66 c-0.36 0.46 -1.38 0.82 -2.04 0.82 c-2.9 0 -5.02 -2.16 -5.02 -5.08 z M32.971687499999994 15.08 c0 1.56 1 2.84 2.24 2.84 c1.36 0 2.24 -1.52 2.24 -2.84 s-0.86 -2.86 -2.24 -2.86 c-1.24 0 -2.24 1.28 -2.24 2.86 z M44.475583333333326 10.12 l0 9.88 l-2.96 0 l0 -9.88 l2.96 0 z M44.555583333333324 7.279999999999999 c0 0.84 -0.68 1.5 -1.58 1.5 c-0.86 0 -1.56 -0.66 -1.56 -1.5 c0 -0.82 0.7 -1.46 1.56 -1.46 c0.9 0 1.58 0.64 1.58 1.46 z M55.37947916666666 14.36 l0 5.64 l-2.96 0 l0 -5.64 c0 -1.5 -0.4 -2.16 -1.56 -2.16 c-1.2 0 -1.9 0.66 -1.9 2.16 l0 5.64 l-2.96 0 l0 -9.88 l2.96 0 l0 0.94 c0.76 -0.74 1.8 -1.08 2.66 -1.08 c2.78 0 3.76 1.34 3.76 4.38 z M66.163375 14.36 l0 5.64 l-2.96 0 l0 -5.64 c0 -1.5 -0.4 -2.16 -1.56 -2.16 c-1.2 0 -1.9 0.66 -1.9 2.16 l0 5.64 l-2.96 0 l0 -9.88 l2.96 0 l0 0.94 c0.76 -0.74 1.8 -1.08 2.66 -1.08 c2.78 0 3.76 1.34 3.76 4.38 z M70.66727083333333 10.12 l0 9.88 l-2.96 0 l0 -9.88 l2.96 0 z M70.74727083333333 7.279999999999999 c0 0.84 -0.68 1.5 -1.58 1.5 c-0.86 0 -1.56 -0.66 -1.56 -1.5 c0 -0.82 0.7 -1.46 1.56 -1.46 c0.9 0 1.58 0.64 1.58 1.46 z"></path></g>
			</g>
		</svg>
	